<?xml version="1.0" encoding="UTF-8" standalone="no"?>
<svg
   width="19"
   height="19"
   viewBox="0 0 19 19"
   version="1.1"
   id="svg6"
   sodipodi:docname="active.svg"
   inkscape:version="1.1.1 (3bf5ae0d25, 2021-09-20)"
   inkscape:export-filename="C:\Users\daniel\Dropbox\icon-19.png"
   inkscape:export-xdpi="96"
   inkscape:export-ydpi="96"
   xmlns:inkscape="http://www.inkscape.org/namespaces/inkscape"
   xmlns:sodipodi="http://sodipodi.sourceforge.net/DTD/sodipodi-0.dtd"
   xmlns="http://www.w3.org/2000/svg"
   xmlns:svg="http://www.w3.org/2000/svg"
   xmlns:rdf="http://www.w3.org/1999/02/22-rdf-syntax-ns#"
   xmlns:cc="http://creativecommons.org/ns#"
   xmlns:dc="http://purl.org/dc/elements/1.1/">
  <metadata
     id="metadata12">
    <rdf:RDF>
      <cc:Work
         rdf:about="">
        <dc:format>image/svg+xml</dc:format>
        <dc:type
           rdf:resource="http://purl.org/dc/dcmitype/StillImage" />
        <dc:title />
        <cc:license
           rdf:resource="http://creativecommons.org/publicdomain/zero/1.0/" />
      </cc:Work>
      <cc:License
         rdf:about="http://creativecommons.org/publicdomain/zero/1.0/">
        <cc:permits
           rdf:resource="http://creativecommons.org/ns#Reproduction" />
        <cc:permits
           rdf:resource="http://creativecommons.org/ns#Distribution" />
        <cc:permits
           rdf:resource="http://creativecommons.org/ns#DerivativeWorks" />
      </cc:License>
    </rdf:RDF>
  </metadata>
  <defs
     id="defs10" />
  <sodipodi:namedview
     pagecolor="#ffffff"
     bordercolor="#666666"
     borderopacity="1"
     objecttolerance="10"
     gridtolerance="10"
     guidetolerance="10"
     inkscape:pageopacity="0"
     inkscape:pageshadow="2"
     inkscape:window-width="1920"
     inkscape:window-height="1016"
     id="namedview8"
     showgrid="false"
     inkscape:zoom="27.547052"
     inkscape:cx="5.3363242"
     inkscape:cy="11.562036"
     inkscape:window-x="0"
     inkscape:window-y="0"
     inkscape:window-maximized="1"
     inkscape:current-layer="svg6"
     inkscape:pagecheckerboard="0" />
  <path
     id="rect4677"
     style="color:#000000;fill:#818181;stroke-linejoin:round;-inkscape-stroke:none"
     d="M 4.6621094 0 C 2.7886841 0 1.25 1.5386841 1.25 3.4121094 L 1.25 15.587891 C 1.25 17.461316 2.7886841 19 4.6621094 19 L 14.337891 19 C 16.211316 19 17.75 17.461316 17.75 15.587891 L 17.75 6.5117188 L 15.75 9.9765625 L 15.75 15.587891 C 15.75 16.387946 15.137946 17 14.337891 17 L 11.695312 17 L 11.011719 18.185547 L 9.8261719 17 L 4.6621094 17 C 3.8620539 17 3.25 16.387946 3.25 15.587891 L 3.25 3.4121094 C 3.25 2.6120539 3.8620539 2 4.6621094 2 L 14.337891 2 C 15.137946 2 15.75 2.6120539 15.75 3.4121094 L 15.75 4.0488281 L 17.75 5.2050781 L 17.75 3.4121094 C 17.75 1.5386841 16.211316 -2.9605947e-16 14.337891 0 L 4.6621094 0 z " />
  <path
     style="color:#000000;fill:#ef4056;-inkscape-stroke:none"
     d="M 10.349609,4.7363281 V 5.9375 h 2.701172 V 4.7363281 Z"
     id="path4685" />
  <path
     style="color:#000000;fill:#ef4056;-inkscape-stroke:none"
     d="M 5.9003906,7.1289062 V 8.3300781 H 13.050781 V 7.1289062 Z"
     id="path4695" />
  <path
     id="path4697"
     style="color:#000000;fill:#ef4056;-inkscape-stroke:none"
     d="M 5.9003906 9.5214844 L 5.9003906 10.722656 L 6.4882812 10.722656 L 7.140625 10.070312 L 7.7929688 10.722656 L 9.2167969 10.722656 L 9.2167969 9.5214844 L 5.9003906 9.5214844 z " />
  <path
     id="path4699"
     style="color:#000000;fill:#ef4056;-inkscape-stroke:none"
     d="M 11.324219 9.5214844 L 11.324219 10.722656 L 11.855469 10.722656 L 12.548828 9.5214844 L 11.324219 9.5214844 z " />
  <path
     id="path4701"
     style="color:#000000;fill:#ef4056;-inkscape-stroke:none"
     d="M 8.984375 11.916016 L 10.183594 13.115234 L 10.472656 13.115234 L 11.166016 11.916016 L 8.984375 11.916016 z M 5.9003906 13.074219 L 5.9003906 13.115234 L 5.9414062 13.115234 L 5.9003906 13.074219 z " />
  <path
     style="color:#000000;fill:#ef4056;-inkscape-stroke:none"
     d="M 5.9003906,4.7363281 V 5.9355469 H 7.9902344 V 4.7363281 Z"
     id="path4703" />
  <path
     style="color:#000000;fill:none;stroke:#000000;stroke-opacity:1;stroke-width:1.5;stroke-miterlimit:4;stroke-dasharray:none"
     d="M 15.719382,4.0313532 10.367819,13.298932 7.141256,10.070416 5.018209,12.19151 11.01235,18.185651 18.317038,5.5313532 Z"
     id="path14" />
</svg>
